<?xml version="1.0" encoding="UTF-8" standalone="no"?>
<!DOCTYPE svg PUBLIC "-//W3C//DTD SVG 1.1//EN" "http://www.w3.org/Graphics/SVG/1.1/DTD/svg11.dtd">
<!-- Created with Vectornator (http://vectornator.io/) -->
<svg height="100%" stroke-miterlimit="10" style="fill-rule:nonzero;clip-rule:evenodd;stroke-linecap:round;stroke-linejoin:round;" version="1.1" viewBox="0 0 841.995 595.35" width="100%" xml:space="preserve" xmlns="http://www.w3.org/2000/svg" xmlns:vectornator="http://vectornator.io" xmlns:xlink="http://www.w3.org/1999/xlink">
<defs/>
<g id="Layer-1" vectornator:layerName="Layer 1"/>
<g id="Layer-2" vectornator:layerName="Layer 2">
<g opacity="1" vectornator:layerName="Curve 1">
<path d="M347.156 259.969C331.536 260.06 315.948 260.451 300.344 261.156C292.556 261.508 284.743 261.889 276.969 262.469C269.352 263.037 261.759 263.796 254.156 264.531C237.391 266.153 220.635 267.603 203.938 269.844C187.889 271.997 171.916 274.776 156.094 278.219C134.613 282.893 113.376 288.902 92.9688 297.125C86.4755 299.741 80.1135 302.64 73.8125 305.688C70.5557 306.805 69.3115 311.771 71.0312 316.781C72.751 321.792 76.7745 324.93 80.0312 323.812C109.43 309.184 141.133 300.47 173.219 294.062C185.523 291.606 197.89 289.496 210.281 287.531C219.234 286.112 228.202 284.705 237.188 283.5C246.293 282.279 255.439 281.346 264.562 280.281C276.179 278.926 287.792 277.611 299.438 276.531C311.898 275.376 324.381 274.536 336.875 273.844C391.876 270.798 447.195 272.298 502 277.719C520.854 279.584 539.644 281.929 558.375 284.781C566.943 286.086 575.547 287.38 584.062 289C594.045 290.899 603.994 293.048 613.906 295.281C645.838 302.475 677.342 311.237 708.5 321.25C709.259 321.855 710.632 321.387 711.562 320.219C712.493 319.051 712.634 317.636 711.875 317.031C688.075 309.382 664.078 302.37 639.812 296.344C627.639 293.321 615.396 290.534 603.125 287.938C597.75 286.8 592.35 285.763 586.969 284.656C577.034 282.612 567.13 280.507 557.156 278.656C538.726 275.236 520.205 272.237 501.625 269.75C450.452 262.9 398.783 259.669 347.156 259.969Z" fill="#ff0000" stroke="none"/>
</g>
<g opacity="1" vectornator:layerName="Curve 2">
<path d="M273.156 297.375C269.166 297.625 265.332 299.118 261.781 300.875C257.431 303.028 253.303 305.592 249.094 308C246.713 309.362 244.29 310.742 241.719 311.719C240.587 312.149 239.265 312.602 238.031 312.438C237.196 312.326 236.478 311.895 235.812 311.406C235.713 311.333 235.585 311.267 235.531 311.156C235.244 310.567 235.112 309.894 234.875 309.281C234.521 308.365 234.106 307.488 233.531 306.688C231.684 304.114 228.475 302.73 225.438 302.219C216.37 300.694 206.783 305.812 199.188 310.094C197.029 311.311 194.907 312.586 192.719 313.75C192.267 313.99 191.8 314.206 191.344 314.438C190.822 314.702 190.224 314.954 189.625 315.156C189.616 315.153 189.603 315.159 189.594 315.156C189.365 315.083 189.151 314.986 188.938 314.875C188.185 314.483 187.459 314.06 186.75 313.594C184.794 312.309 182.885 310.979 180.719 310.062C174.445 307.407 167.499 308.347 161.25 310.562C153.271 313.391 146.418 318.237 139.188 322.5C138.772 322.745 138.358 322.982 137.938 323.219C137.605 323.406 137.274 323.601 136.938 323.781C136.938 323.728 136.969 323.678 136.969 323.625C136.968 322.606 136.841 321.589 136.5 320.625C134.751 315.677 128.612 314.323 123.938 314.781C120.72 315.097 117.584 315.88 114.5 316.844C112.981 317.319 111.423 317.696 109.969 318.344C108.467 319.013 107.107 319.952 105.688 320.781C105.135 321.104 104.605 321.443 104.062 321.781C102.719 322.619 101.328 323.404 100.031 324.312C98.4717 325.405 97.0138 326.676 95.5312 327.875C94.0112 329.104 92.5083 330.347 91 331.594C89.4826 329.842 87.1862 328.303 84.375 327.438C78.6011 325.659 72.9686 327.247 71.8125 331C68.1343 335.771 64.1425 340.79 62.8438 346.812C62.0107 350.676 62.9784 354.774 66.4688 357C67.2418 357.493 68.0387 357.834 68.9062 358.125C73.1444 359.547 77.9997 358.911 82.2188 357.781C90.7888 355.486 98.0421 350.242 104.719 344.594C106.453 343.126 108.187 341.667 109.938 340.219C110.277 339.938 110.598 339.655 110.938 339.375C111.115 339.987 111.399 340.556 111.688 341.125C113.056 343.819 116.459 345.238 119.25 345.781C130.118 347.897 141.099 342.207 149.969 336.625C152.964 334.74 155.889 332.737 158.938 330.938C160.313 330.125 161.68 329.301 163.188 328.75C163.372 328.683 163.562 328.616 163.75 328.562C164.084 328.621 164.469 328.727 164.656 328.812C165.966 329.411 167.173 330.268 168.406 331C168.999 331.352 169.576 331.711 170.188 332.031C173.313 333.669 176.65 334.636 180.188 334.75C190.172 335.073 198.908 329.006 207 323.969C208.765 322.87 210.537 321.815 212.375 320.844C212.923 320.554 213.485 320.29 214.062 320.062C214.137 320.033 214.239 320.008 214.344 319.969C214.597 320.54 214.805 321.134 215.062 321.688C215.635 322.918 216.37 324.086 217.312 325.062C217.882 325.653 219.033 326.506 219.75 326.969C223.086 329.121 227.028 330.024 230.969 329.969C241.299 329.824 250.901 323.91 259.312 318.469C261.398 317.12 263.449 315.723 265.594 314.469C266.236 314.093 266.924 313.711 267.594 313.375C267.725 313.309 267.761 313.306 267.812 313.281C267.854 313.303 267.867 313.29 267.906 313.312C268.733 313.79 269.476 314.433 270.188 315.062C271.535 316.254 272.835 317.486 274.281 318.562C278.089 321.396 282.743 322.591 287.438 322.094C296.112 321.175 303.869 317.419 311.75 313.969C313.354 313.266 314.906 312.632 316.562 312.062C317.462 311.753 318.24 311.389 319.156 311.25C320.502 311.046 321.886 310.887 323.219 310.594C323.229 310.592 323.24 310.596 323.25 310.594C323.391 310.599 323.58 310.595 323.719 310.625C324.276 310.745 324.764 310.916 325.281 311.156C326.747 311.838 328.017 312.845 329.344 313.75C330.493 314.534 331.618 315.374 332.844 316.031C333.533 316.401 334.247 316.668 334.969 316.969C335.747 317.293 336.498 317.691 337.312 317.906C338.09 318.112 338.919 318.135 339.719 318.219C341.005 318.354 342.507 318.489 343.781 318.438C346.511 318.327 349.289 317.65 351.906 316.906C357.774 315.239 363.255 312.573 369 310.562C372.901 309.198 377.916 307.668 381.812 309.875C384.06 311.148 385.922 312.96 388.094 314.344C388.605 314.669 389.155 314.93 389.688 315.219C390.298 315.551 390.884 315.965 391.531 316.219C392.215 316.487 392.946 316.597 393.656 316.781C394.278 316.943 394.9 317.132 395.531 317.25C398.205 317.748 401.099 317.537 403.781 317.219C410.386 316.435 416.686 314.164 423 312.188C427.259 310.854 431.767 309.471 436.281 309.625C442.224 309.827 446.584 313.358 451.625 315.969C453.799 317.095 456.083 317.95 458.5 318.375C465.769 319.654 472.794 317.24 479.625 315.031C483.553 313.761 487.698 312.291 491.875 312.281C496.376 312.27 499.945 314.997 503.719 317.094C507.533 319.213 511.249 320.381 515.594 320.562C522.509 320.851 529.28 318.907 535.906 317.188C539.952 316.138 544.188 314.917 548.406 315.031C553.197 315.161 557.64 316.902 562.156 318.312C565.746 319.434 569.358 320.267 573.125 320.469C581.543 320.92 589.917 319.332 598.312 319.062C599.237 319.033 600.138 318.95 601.062 318.969C602.453 318.997 603.863 319.18 605.25 319.281C605.987 319.335 606.742 319.395 607.469 319.531C612.153 320.412 616.144 323.088 620.531 324.781C621.827 325.281 623.154 325.721 624.5 326.062C625.272 326.258 626.054 326.3 626.844 326.406C627.591 326.506 628.343 326.627 629.094 326.688C631.254 326.862 633.459 326.854 635.625 326.906C640.328 327.019 645.021 327.091 649.719 327.344C658.812 327.834 668.06 328.941 676.562 332.375C680.502 333.966 684.134 336.06 687.562 338.562C688.24 339.331 689.755 339.104 690.938 338.062C692.12 337.021 692.521 335.55 691.844 334.781C688.209 332.129 684.333 329.905 680.156 328.219C671.219 324.609 661.528 323.422 651.969 322.906C647.218 322.65 642.474 322.582 637.719 322.469C635.65 322.419 633.531 322.446 631.469 322.281C630.454 322.2 629.448 322.002 628.438 321.875C628.17 321.841 627.886 321.85 627.625 321.781C626.423 321.466 625.253 321.073 624.094 320.625C619.459 318.836 615.303 316.067 610.344 315.156C608.968 314.903 607.58 314.852 606.188 314.75C605.181 314.676 604.166 314.552 603.156 314.531C602.134 314.511 601.116 314.592 600.094 314.625C591.861 314.889 583.627 316.469 575.375 316.031C566.803 315.576 559.235 310.854 550.719 310.344C547.388 310.144 544.071 310.668 540.812 311.312C533.885 312.683 526.95 315.052 519.812 314.875C516.922 314.803 514.099 314.232 511.5 312.938C509.532 311.958 507.728 310.61 505.875 309.438C503.368 307.852 500.73 306.467 497.781 305.938C490.938 304.709 483.606 307.249 477.094 309.125C473.474 310.168 469.745 311.255 465.938 311.031C460.712 310.725 457.135 307.553 452.844 305C449.127 302.789 445.056 301.267 440.719 300.969C432.151 300.38 423.861 303.472 415.719 305.656C412.328 306.566 408.871 307.402 405.344 307.5C404.397 307.526 403.204 307.619 402.281 307.375C401.836 307.257 401.411 307.096 400.969 306.969C400.615 306.867 400.242 306.839 399.906 306.688C399.576 306.539 399.307 306.287 399 306.094C398.236 305.613 397.484 305.098 396.781 304.531C395.073 303.154 393.422 301.674 391.562 300.5C388.584 298.619 385.239 297.918 381.75 297.875C374.94 297.792 368.378 300.071 362.062 302.375C357.938 303.88 353.767 305.602 349.375 306.125C348.376 306.244 347.386 305.845 346.375 305.875C346.287 305.878 346.672 306.071 346.594 306.031C345.782 305.619 344.935 305.283 344.156 304.812C343.748 304.566 343.382 304.224 343 303.938C341.78 303.022 340.61 302.083 339.375 301.188C336.298 298.955 332.667 297.404 328.812 297.438C327.177 297.452 325.588 297.706 323.969 297.906C322.664 298.068 321.346 298.185 320.062 298.469C318.744 298.76 317.479 299.232 316.188 299.625C312.864 300.636 309.66 301.892 306.438 303.188C301.819 305.044 297.159 307.095 292.125 307.406C291.268 307.459 290.322 306.708 289.688 306.25C288.002 305.035 286.662 303.419 285.156 302C281.705 298.747 277.949 297.075 273.156 297.375Z" fill="#ff0000" stroke="none"/>
</g>
</g>
</svg>
